<?xml version="1.0" standalone="no"?>
<!DOCTYPE svg PUBLIC "-//W3C//DTD SVG 1.1//EN" "https://www.w3.org/Graphics/SVG/1.1/DTD/svg11.dtd">

<svg width="294" height="360" version="1.1" xmlns="http://www.w3.org/2000/svg" style="background: white">
	<ellipse stroke="black" stroke-width="1" fill="none" cx="96.5" cy="99.5" rx="30" ry="30"/>
	<text x="90.5" y="105.5" font-family="Times New Roman" font-size="20">0</text>
	<ellipse stroke="black" stroke-width="1" fill="none" cx="96.5" cy="99.5" rx="24" ry="24"/>
	<ellipse stroke="black" stroke-width="1" fill="none" cx="206.5" cy="99.5" rx="30" ry="30"/>
	<text x="200.5" y="105.5" font-family="Times New Roman" font-size="20">1</text>
	<ellipse stroke="black" stroke-width="1" fill="none" cx="55.5" cy="189.5" rx="30" ry="30"/>
	<text x="49.5" y="195.5" font-family="Times New Roman" font-size="20">2</text>
	<ellipse stroke="black" stroke-width="1" fill="none" cx="239.5" cy="189.5" rx="30" ry="30"/>
	<text x="233.5" y="195.5" font-family="Times New Roman" font-size="20">3</text>
	<ellipse stroke="black" stroke-width="1" fill="none" cx="148.5" cy="260.5" rx="30" ry="30"/>
	<text x="142.5" y="266.5" font-family="Times New Roman" font-size="20">4</text>
	<polygon stroke="black" stroke-width="1" points="34.5,99.5 66.5,99.5"/>
	<polygon fill="black" stroke-width="1" points="66.5,99.5 58.5,94.5 58.5,104.5"/>
	<polygon stroke="black" stroke-width="1" points="126.5,99.5 176.5,99.5"/>
	<polygon fill="black" stroke-width="1" points="176.5,99.5 168.5,94.5 168.5,104.5"/>
	<text x="145.5" y="90.5" font-family="Times New Roman" font-size="20">1</text>
	<path stroke="black" stroke-width="1" fill="none" d="M 83.275,72.703 A 22.5,22.5 0 1 1 109.725,72.703"/>
	<text x="90.5" y="23.5" font-family="Times New Roman" font-size="20">0</text>
	<polygon fill="black" stroke-width="1" points="109.725,72.703 118.473,69.17 110.382,63.292"/>
	<polygon stroke="black" stroke-width="1" points="180.73,114.86 81.27,174.14"/>
	<polygon fill="black" stroke-width="1" points="81.27,174.14 90.702,174.34 85.582,165.75"/>
	<text x="135.5" y="165.5" font-family="Times New Roman" font-size="20">0</text>
	<path stroke="black" stroke-width="1" fill="none" d="M 229.389,118.552 A 71.47,71.47 0 0 1 244.648,160.168"/>
	<polygon fill="black" stroke-width="1" points="244.648,160.168 249.355,151.993 239.362,152.354"/>
	<text x="247.5" y="136.5" font-family="Times New Roman" font-size="20">1</text>
	<polygon stroke="black" stroke-width="1" points="79.345,207.704 124.655,242.296"/>
	<polygon fill="black" stroke-width="1" points="124.655,242.296 121.33,233.467 115.262,241.415"/>
	<text x="84.5" y="245.5" font-family="Times New Roman" font-size="20">0</text>
	<polygon stroke="black" stroke-width="1" points="67.937,162.199 84.063,126.801"/>
	<polygon fill="black" stroke-width="1" points="84.063,126.801 76.196,132.008 85.297,136.154"/>
	<text x="56.5" y="140.5" font-family="Times New Roman" font-size="20">1</text>
	<path stroke="black" stroke-width="1" fill="none" d="M 217.62,169.249 A 77.578,77.578 0 0 1 202.896,129.095"/>
	<polygon fill="black" stroke-width="1" points="202.896,129.095 198.486,137.435 208.46,136.713"/>
	<text x="187.5" y="164.5" font-family="Times New Roman" font-size="20">0</text>
	<polygon stroke="black" stroke-width="1" points="209.5,189.5 85.5,189.5"/>
	<polygon fill="black" stroke-width="1" points="85.5,189.5 93.5,194.5 93.5,184.5"/>
	<text x="141.5" y="210.5" font-family="Times New Roman" font-size="20">1</text>
	<polygon stroke="black" stroke-width="1" points="172.153,242.046 215.847,207.954"/>
	<polygon fill="black" stroke-width="1" points="215.847,207.954 206.464,208.933 212.616,216.817"/>
	<text x="199.5" y="245.5" font-family="Times New Roman" font-size="20">0</text>
	<path stroke="black" stroke-width="1" fill="none" d="M 161.725,287.297 A 22.5,22.5 0 1 1 135.275,287.297"/>
	<text x="142.5" y="349.5" font-family="Times New Roman" font-size="20">1</text>
	<polygon fill="black" stroke-width="1" points="135.275,287.297 126.527,290.83 134.618,296.708"/>
</svg>
