<?xml version="1.0" standalone="no"?>
<!DOCTYPE svg PUBLIC "-//W3C//DTD SVG 1.1//EN" "https://www.w3.org/Graphics/SVG/1.1/DTD/svg11.dtd">

<svg width="510" height="420" version="1.1" xmlns="http://www.w3.org/2000/svg" style="background: white">
	<ellipse stroke="black" stroke-width="1" fill="none" cx="88.5" cy="58.5" rx="30" ry="30"/>
	<text x="78.5" y="64.5" font-family="Times New Roman" font-size="20">q&#8320;</text>
	<ellipse stroke="black" stroke-width="1" fill="none" cx="215.5" cy="146.5" rx="30" ry="30"/>
	<text x="209.5" y="152.5" font-family="Times New Roman" font-size="20">0</text>
	<ellipse stroke="black" stroke-width="1" fill="none" cx="328.5" cy="58.5" rx="30" ry="30"/>
	<text x="315.5" y="64.5" font-family="Times New Roman" font-size="20">00</text>
	<ellipse stroke="black" stroke-width="1" fill="none" cx="452.5" cy="58.5" rx="30" ry="30"/>
	<text x="433.5" y="64.5" font-family="Times New Roman" font-size="20">000</text>
	<ellipse stroke="black" stroke-width="1" fill="none" cx="452.5" cy="58.5" rx="24" ry="24"/>
	<ellipse stroke="black" stroke-width="1" fill="none" cx="452.5" cy="272.5" rx="30" ry="30"/>
	<text x="445.5" y="278.5" font-family="Times New Roman" font-size="20">T</text>
	<ellipse stroke="black" stroke-width="1" fill="none" cx="88.5" cy="272.5" rx="30" ry="30"/>
	<text x="78.5" y="278.5" font-family="Times New Roman" font-size="20">q&#8321;</text>
	<ellipse stroke="black" stroke-width="1" fill="none" cx="88.5" cy="272.5" rx="24" ry="24"/>
	<ellipse stroke="black" stroke-width="1" fill="none" cx="328.5" cy="272.5" rx="30" ry="30"/>
	<text x="315.5" y="278.5" font-family="Times New Roman" font-size="20">00</text>
	<ellipse stroke="black" stroke-width="1" fill="none" cx="328.5" cy="272.5" rx="24" ry="24"/>
	<ellipse stroke="black" stroke-width="1" fill="none" cx="215.5" cy="364.5" rx="30" ry="30"/>
	<text x="209.5" y="370.5" font-family="Times New Roman" font-size="20">0</text>
	<ellipse stroke="black" stroke-width="1" fill="none" cx="215.5" cy="364.5" rx="24" ry="24"/>
	<polygon stroke="black" stroke-width="1" points="26.5,58.5 58.5,58.5"/>
	<polygon fill="black" stroke-width="1" points="58.5,58.5 50.5,53.5 50.5,63.5"/>
	<path stroke="black" stroke-width="1" fill="none" d="M 186.637,138.428 A 193.455,193.455 0 0 1 106.195,82.689"/>
	<polygon fill="black" stroke-width="1" points="186.637,138.428 180.839,130.987 177.408,140.38"/>
	<text x="125.5" y="136.5" font-family="Times New Roman" font-size="20">0</text>
	<polygon stroke="black" stroke-width="1" points="239.169,128.067 304.831,76.933"/>
	<polygon fill="black" stroke-width="1" points="304.831,76.933 295.447,77.903 301.591,85.793"/>
	<text x="277.5" y="123.5" font-family="Times New Roman" font-size="20">0</text>
	<polygon stroke="black" stroke-width="1" points="358.5,58.5 422.5,58.5"/>
	<polygon fill="black" stroke-width="1" points="422.5,58.5 414.5,53.5 414.5,63.5"/>
	<text x="384.5" y="49.5" font-family="Times New Roman" font-size="20">0</text>
	<path stroke="black" stroke-width="1" fill="none" d="M 101.725,85.297 A 22.5,22.5 0 1 1 75.275,85.297"/>
	<text x="82.5" y="147.5" font-family="Times New Roman" font-size="20">1</text>
	<polygon fill="black" stroke-width="1" points="75.275,85.297 66.527,88.83 74.618,94.708"/>
	<path stroke="black" stroke-width="1" fill="none" d="M 115.916,70.656 A 333.832,333.832 0 0 1 194.489,125.101"/>
	<polygon fill="black" stroke-width="1" points="115.916,70.656 120.846,78.699 125.306,69.749"/>
	<text x="162.5" y="86.5" font-family="Times New Roman" font-size="20">1</text>
	<polygon stroke="black" stroke-width="1" points="298.5,58.5 118.5,58.5"/>
	<polygon fill="black" stroke-width="1" points="118.5,58.5 126.5,63.5 126.5,53.5"/>
	<text x="202.5" y="49.5" font-family="Times New Roman" font-size="20">1</text>
	<polygon stroke="black" stroke-width="1" points="452.5,88.5 452.5,242.5"/>
	<polygon fill="black" stroke-width="1" points="452.5,242.5 457.5,234.5 447.5,234.5"/>
	<text x="434.5" y="171.5" font-family="Times New Roman" font-size="20">0</text>
	<path stroke="black" stroke-width="1" fill="none" d="M 465.725,299.297 A 22.5,22.5 0 1 1 439.275,299.297"/>
	<text x="433.5" y="361.5" font-family="Times New Roman" font-size="20">0, 1</text>
	<polygon fill="black" stroke-width="1" points="439.275,299.297 430.527,302.83 438.618,308.708"/>
	<polygon stroke="black" stroke-width="1" points="426.638,73.704 114.362,257.296"/>
	<polygon fill="black" stroke-width="1" points="114.362,257.296 123.792,257.551 118.724,248.931"/>
	<text x="275.5" y="186.5" font-family="Times New Roman" font-size="20">1</text>
	<path stroke="black" stroke-width="1" fill="none" d="M 101.725,299.297 A 22.5,22.5 0 1 1 75.275,299.297"/>
	<text x="82.5" y="361.5" font-family="Times New Roman" font-size="20">1</text>
	<polygon fill="black" stroke-width="1" points="75.275,299.297 66.527,302.83 74.618,308.708"/>
	<path stroke="black" stroke-width="1" fill="none" d="M 187.417,354.002 A 240.96,240.96 0 0 1 107.227,295.912"/>
	<polygon fill="black" stroke-width="1" points="187.417,354.002 182.151,346.175 178.074,355.306"/>
	<text x="126.5" y="350.5" font-family="Times New Roman" font-size="20">0</text>
	<path stroke="black" stroke-width="1" fill="none" d="M 115.384,285.796 A 381.636,381.636 0 0 1 194.487,343.099"/>
	<polygon fill="black" stroke-width="1" points="115.384,285.796 120.019,294.013 124.801,285.23"/>
	<text x="161.5" y="302.5" font-family="Times New Roman" font-size="20">1</text>
	<polygon stroke="black" stroke-width="1" points="298.5,272.5 118.5,272.5"/>
	<polygon fill="black" stroke-width="1" points="118.5,272.5 126.5,277.5 126.5,267.5"/>
	<text x="202.5" y="263.5" font-family="Times New Roman" font-size="20">1</text>
	<polygon stroke="black" stroke-width="1" points="238.765,345.559 305.235,291.441"/>
	<polygon fill="black" stroke-width="1" points="305.235,291.441 295.875,292.615 302.188,300.369"/>
	<text x="277.5" y="339.5" font-family="Times New Roman" font-size="20">0</text>
	<polygon stroke="black" stroke-width="1" points="358.5,272.5 422.5,272.5"/>
	<polygon fill="black" stroke-width="1" points="422.5,272.5 414.5,267.5 414.5,277.5"/>
	<text x="384.5" y="293.5" font-family="Times New Roman" font-size="20">0</text>
</svg>
