<?xml version="1.0" standalone="no"?>
<!DOCTYPE svg PUBLIC "-//W3C//DTD SVG 1.1//EN" "https://www.w3.org/Graphics/SVG/1.1/DTD/svg11.dtd">

<svg width="490" height="280" version="1.1" xmlns="http://www.w3.org/2000/svg" style="background: white">
	<ellipse stroke="black" stroke-width="1" fill="none" cx="89.5" cy="58.5" rx="30" ry="30"/>
	<text x="79.5" y="64.5" font-family="Times New Roman" font-size="20">q&#8321;</text>
	<ellipse stroke="black" stroke-width="1" fill="none" cx="201.5" cy="58.5" rx="30" ry="30"/>
	<text x="191.5" y="64.5" font-family="Times New Roman" font-size="20">q&#8322;</text>
	<ellipse stroke="black" stroke-width="1" fill="none" cx="320.5" cy="58.5" rx="30" ry="30"/>
	<text x="310.5" y="64.5" font-family="Times New Roman" font-size="20">q&#8323;</text>
	<ellipse stroke="black" stroke-width="1" fill="none" cx="435.5" cy="58.5" rx="30" ry="30"/>
	<text x="425.5" y="64.5" font-family="Times New Roman" font-size="20">q&#8324;</text>
	<ellipse stroke="black" stroke-width="1" fill="none" cx="435.5" cy="58.5" rx="24" ry="24"/>
	<ellipse stroke="black" stroke-width="1" fill="none" cx="201.5" cy="163.5" rx="30" ry="30"/>
	<text x="194.5" y="169.5" font-family="Times New Roman" font-size="20">T</text>
	<polygon stroke="black" stroke-width="1" points="27.5,58.5 59.5,58.5"/>
	<polygon fill="black" stroke-width="1" points="59.5,58.5 51.5,53.5 51.5,63.5"/>
	<polygon stroke="black" stroke-width="1" points="119.5,58.5 171.5,58.5"/>
	<polygon fill="black" stroke-width="1" points="171.5,58.5 163.5,53.5 163.5,63.5"/>
	<text x="139.5" y="79.5" font-family="Times New Roman" font-size="20">0</text>
	<polygon stroke="black" stroke-width="1" points="231.5,58.5 290.5,58.5"/>
	<polygon fill="black" stroke-width="1" points="290.5,58.5 282.5,53.5 282.5,63.5"/>
	<text x="254.5" y="79.5" font-family="Times New Roman" font-size="20">1</text>
	<polygon stroke="black" stroke-width="1" points="350.5,58.5 405.5,58.5"/>
	<polygon fill="black" stroke-width="1" points="405.5,58.5 397.5,53.5 397.5,63.5"/>
	<text x="371.5" y="79.5" font-family="Times New Roman" font-size="20">0</text>
	<path stroke="black" stroke-width="1" fill="none" d="M 448.725,85.297 A 22.5,22.5 0 1 1 422.275,85.297"/>
	<text x="416.5" y="147.5" font-family="Times New Roman" font-size="20">0, 1</text>
	<polygon fill="black" stroke-width="1" points="422.275,85.297 413.527,88.83 421.618,94.708"/>
	<polygon stroke="black" stroke-width="1" points="111.386,79.018 179.614,142.982"/>
	<polygon fill="black" stroke-width="1" points="179.614,142.982 177.197,133.863 170.358,141.158"/>
	<text x="127.5" y="131.5" font-family="Times New Roman" font-size="20">1</text>
	<polygon stroke="black" stroke-width="1" points="201.5,88.5 201.5,133.5"/>
	<polygon fill="black" stroke-width="1" points="201.5,133.5 206.5,125.5 196.5,125.5"/>
	<text x="183.5" y="117.5" font-family="Times New Roman" font-size="20">0</text>
	<polygon stroke="black" stroke-width="1" points="298.005,78.349 223.995,143.651"/>
	<polygon fill="black" stroke-width="1" points="223.995,143.651 233.302,142.108 226.686,134.609"/>
	<text x="266.5" y="131.5" font-family="Times New Roman" font-size="20">1</text>
	<path stroke="black" stroke-width="1" fill="none" d="M 214.725,190.297 A 22.5,22.5 0 1 1 188.275,190.297"/>
	<text x="182.5" y="252.5" font-family="Times New Roman" font-size="20">0, 1</text>
	<polygon fill="black" stroke-width="1" points="188.275,190.297 179.527,193.83 187.618,199.708"/>
</svg>