<?xml version="1.0" standalone="no"?>
<!DOCTYPE svg PUBLIC "-//W3C//DTD SVG 1.1//EN" "https://www.w3.org/Graphics/SVG/1.1/DTD/svg11.dtd">

<svg width="590" height="320" version="1.1" xmlns="http://www.w3.org/2000/svg" style="background: white">
    <ellipse stroke="black" stroke-width="1" fill="none" cx="77.5" cy="146.5" rx="30" ry="30"/>
	<text x="67.5" y="152.5" font-family="Times New Roman" font-size="20">q&#8320;</text>
	<ellipse stroke="black" stroke-width="1" fill="none" cx="187.5" cy="146.5" rx="30" ry="30"/>
	<text x="177.5" y="152.5" font-family="Times New Roman" font-size="20">q&#8321;</text>
	<ellipse stroke="black" stroke-width="1" fill="none" cx="526.5" cy="146.5" rx="30" ry="30"/>
	<text x="516.5" y="152.5" font-family="Times New Roman" font-size="20">q&#8323;</text>
	<ellipse stroke="black" stroke-width="1" fill="none" cx="526.5" cy="146.5" rx="24" ry="24"/>
	<ellipse stroke="black" stroke-width="1" fill="none" cx="307.5" cy="146.5" rx="30" ry="30"/>
	<text x="297.5" y="152.5" font-family="Times New Roman" font-size="20">q&#8322;</text>
	<ellipse stroke="black" stroke-width="1" fill="none" cx="307.5" cy="146.5" rx="24" ry="24"/>
	<ellipse stroke="black" stroke-width="1" fill="none" cx="414.5" cy="146.5" rx="30" ry="30"/>
	<text x="404.5" y="152.5" font-family="Times New Roman" font-size="20">q&#8324;</text>
	<ellipse stroke="black" stroke-width="1" fill="none" cx="414.5" cy="253.5" rx="30" ry="30"/>
	<text x="404.5" y="259.5" font-family="Times New Roman" font-size="20">q&#8325;</text>
	<ellipse stroke="black" stroke-width="1" fill="none" cx="414.5" cy="253.5" rx="24" ry="24"/>
	<polygon stroke="black" stroke-width="1" points="15.5,146.5 47.5,146.5"/>
	<polygon fill="black" stroke-width="1" points="47.5,146.5 39.5,141.5 39.5,151.5"/>
	<polygon stroke="black" stroke-width="1" points="107.5,146.5 157.5,146.5"/>
	<polygon fill="black" stroke-width="1" points="157.5,146.5 149.5,141.5 149.5,151.5"/>
	<text x="114.5" y="167.5" font-family="Times New Roman" font-size="20">+, -</text>
	<path stroke="black" stroke-width="1" fill="none" d="M 214.276,132.992 A 346.93,346.93 0 0 1 499.724,132.992"/>
	<polygon fill="black" stroke-width="1" points="499.724,132.992 494.489,125.144 490.375,134.258"/>
	<text x="337.5" y="93.5" font-family="Times New Roman" font-size="20">1..9</text>
	<path stroke="black" stroke-width="1" fill="none" d="M 513.275,119.703 A 22.5,22.5 0 1 1 539.725,119.703"/>
	<text x="507.5" y="70.5" font-family="Times New Roman" font-size="20">0..9</text>
	<polygon fill="black" stroke-width="1" points="539.725,119.703 548.473,116.17 540.382,110.292"/>
	<polygon stroke="black" stroke-width="1" points="217.5,146.5 277.5,146.5"/>
	<polygon fill="black" stroke-width="1" points="277.5,146.5 269.5,141.5 269.5,151.5"/>
	<text x="241.5" y="167.5" font-family="Times New Roman" font-size="20">0</text>
	<polygon stroke="black" stroke-width="1" points="496.5,146.5 444.5,146.5"/>
	<polygon fill="black" stroke-width="1" points="444.5,146.5 452.5,151.5 452.5,141.5"/>
	<text x="467.5" y="167.5" font-family="Times New Roman" font-size="20">.</text>
	<polygon stroke="black" stroke-width="1" points="337.5,146.5 384.5,146.5"/>
	<polygon fill="black" stroke-width="1" points="384.5,146.5 376.5,141.5 376.5,151.5"/>
	<text x="357.5" y="167.5" font-family="Times New Roman" font-size="20">.</text>
	<polygon stroke="black" stroke-width="1" points="414.5,176.5 414.5,223.5"/>
	<polygon fill="black" stroke-width="1" points="414.5,223.5 419.5,215.5 409.5,215.5"/>
	<text x="419.5" y="206.5" font-family="Times New Roman" font-size="20">0..9</text>
	<path stroke="black" stroke-width="1" fill="none" d="M 441.297,240.275 A 22.5,22.5 0 1 1 441.297,266.725"/>
	<text x="487.5" y="259.5" font-family="Times New Roman" font-size="20">0..9</text>
	<polygon fill="black" stroke-width="1" points="441.297,266.725 444.83,275.473 450.708,267.382"/>
	<path stroke="black" stroke-width="1" fill="none" d="M 285.913,167.262 A 151.071,151.071 0 0 1 99.087,167.262"/>
	<polygon fill="black" stroke-width="1" points="285.913,167.262 276.534,168.279 282.718,176.138"/>
	<text x="186.5" y="220.5" font-family="Times New Roman" font-size="20">0</text>
	<path stroke="black" stroke-width="1" fill="none" d="M 101.174,128.088 A 346.726,346.726 0 0 1 502.826,128.088"/>
	<polygon fill="black" stroke-width="1" points="502.826,128.088 499.201,119.379 493.409,127.53"/>
	<text x="282.5" y="55.5" font-family="Times New Roman" font-size="20">1..9</text>
	<path stroke="black" stroke-width="1" fill="none" d="M 396.882,170.746 A 197.966,197.966 0 0 1 95.118,170.746"/>
	<polygon fill="black" stroke-width="1" points="396.882,170.746 387.892,173.606 395.513,180.08"/>
	<text x="242.5" y="261.5" font-family="Times New Roman" font-size="20">.</text>
	<path stroke="black" stroke-width="1" fill="none" d="M 393.118,167.469 A 147.594,147.594 0 0 1 208.882,167.469"/>
	<polygon fill="black" stroke-width="1" points="393.118,167.469 383.747,168.556 389.988,176.369"/>
	<text x="297.5" y="220.5" font-family="Times New Roman" font-size="20">.</text>
</svg>