<?xml version="1.0" standalone="no"?>
<!DOCTYPE svg PUBLIC "-//W3C//DTD SVG 1.1//EN" "https://www.w3.org/Graphics/SVG/1.1/DTD/svg11.dtd">

<svg width="480" height="276" version="1.1" xmlns="http://www.w3.org/2000/svg" style="background: white">
    <ellipse stroke="black" stroke-width="1" fill="none" cx="84.5" cy="55.5" rx="30" ry="30"/>
	<text x="74.5" y="61.5" font-family="Times New Roman" font-size="20">q&#8320;</text>
	<ellipse stroke="black" stroke-width="1" fill="none" cx="222.5" cy="55.5" rx="30" ry="30"/>
	<text x="212.5" y="61.5" font-family="Times New Roman" font-size="20">q&#8321;</text>
	<ellipse stroke="black" stroke-width="1" fill="none" cx="154.5" cy="162.5" rx="30" ry="30"/>
	<text x="147.5" y="168.5" font-family="Times New Roman" font-size="20">T</text>
	<ellipse stroke="black" stroke-width="1" fill="none" cx="356.5" cy="55.5" rx="30" ry="30"/>
	<text x="346.5" y="61.5" font-family="Times New Roman" font-size="20">q&#8322;</text>
	<ellipse stroke="black" stroke-width="1" fill="none" cx="356.5" cy="55.5" rx="24" ry="24"/>
	<polygon stroke="black" stroke-width="1" points="22.5,55.5 54.5,55.5"/>
	<polygon fill="black" stroke-width="1" points="54.5,55.5 46.5,50.5 46.5,60.5"/>
	<polygon stroke="black" stroke-width="1" points="114.5,55.5 192.5,55.5"/>
	<polygon fill="black" stroke-width="1" points="192.5,55.5 184.5,50.5 184.5,60.5"/>
	<text x="135.5" y="46.5" font-family="Times New Roman" font-size="20">+, -</text>
	<path stroke="black" stroke-width="1" fill="none" d="M 127.458,149.778 A 98.827,98.827 0 0 1 85.324,85.374"/>
	<polygon fill="black" stroke-width="1" points="127.458,149.778 123.605,141.167 118.029,149.468"/>
	<text x="30.5" y="141.5" font-family="Times New Roman" font-size="20">&#931; \ +,-</text>
	<path stroke="black" stroke-width="1" fill="none" d="M 167.725,189.297 A 22.5,22.5 0 1 1 141.275,189.297"/>
	<text x="147.5" y="251.5" font-family="Times New Roman" font-size="20">&#931;</text>
	<polygon fill="black" stroke-width="1" points="141.275,189.297 132.527,192.83 140.618,198.708"/>
	<polygon stroke="black" stroke-width="1" points="206.409,80.82 170.591,137.18"/>
	<polygon fill="black" stroke-width="1" points="170.591,137.18 179.102,133.11 170.662,127.747"/>
	<text x="110.5" y="101.5" font-family="Times New Roman" font-size="20">&#931; \ 1..9</text>
	<polygon stroke="black" stroke-width="1" points="252.5,55.5 326.5,55.5"/>
	<polygon fill="black" stroke-width="1" points="326.5,55.5 318.5,50.5 318.5,60.5"/>
	<text x="270.5" y="46.5" font-family="Times New Roman" font-size="20">1..9</text>
	<polygon stroke="black" stroke-width="1" points="329.99,69.543 181.01,148.457"/>
	<polygon fill="black" stroke-width="1" points="181.01,148.457 190.42,149.131 185.739,140.294"/>
	<text x="260.5" y="130.5" font-family="Times New Roman" font-size="20">&#931; \ 0..9</text>
	<path stroke="black" stroke-width="1" fill="none" d="M 383.297,42.275 A 22.5,22.5 0 1 1 383.297,68.725"/>
	<text x="429.5" y="61.5" font-family="Times New Roman" font-size="20">0..9</text>
	<polygon fill="black" stroke-width="1" points="383.297,68.725 386.83,77.473 392.708,69.382"/>
</svg>
