<?xml version="1.0" standalone="no"?>
<!DOCTYPE svg PUBLIC "-//W3C//DTD SVG 1.1//EN" "https://www.w3.org/Graphics/SVG/1.1/DTD/svg11.dtd">

<svg width="780" height="470" version="1.1" xmlns="http://www.w3.org/2000/svg" style="background: white">
	<ellipse stroke="black" stroke-width="1" fill="none" cx="87.5" cy="162.5" rx="30" ry="30"/>
	<ellipse stroke="black" stroke-width="1" fill="none" cx="186.5" cy="119.5" rx="30" ry="30"/>
	<ellipse stroke="black" stroke-width="1" fill="none" cx="186.5" cy="192.5" rx="30" ry="30"/>
	<ellipse stroke="black" stroke-width="1" fill="none" cx="282.5" cy="75.5" rx="30" ry="30"/>
	<ellipse stroke="black" stroke-width="1" fill="none" cx="282.5" cy="75.5" rx="24" ry="24"/>
	<ellipse stroke="black" stroke-width="1" fill="none" cx="282.5" cy="162.5" rx="30" ry="30"/>
	<ellipse stroke="black" stroke-width="1" fill="none" cx="282.5" cy="162.5" rx="24" ry="24"/>
	<ellipse stroke="black" stroke-width="1" fill="none" cx="282.5" cy="238.5" rx="30" ry="30"/>
	<ellipse stroke="black" stroke-width="1" fill="none" cx="282.5" cy="238.5" rx="24" ry="24"/>
	<ellipse stroke="black" stroke-width="1" fill="none" cx="436.5" cy="162.5" rx="30" ry="30"/>
	<ellipse stroke="black" stroke-width="1" fill="none" cx="533.5" cy="119.5" rx="30" ry="30"/>
	<ellipse stroke="black" stroke-width="1" fill="none" cx="635.5" cy="75.5" rx="30" ry="30"/>
	<ellipse stroke="black" stroke-width="1" fill="none" cx="635.5" cy="162.5" rx="30" ry="30"/>
	<ellipse stroke="black" stroke-width="1" fill="none" cx="635.5" cy="162.5" rx="24" ry="24"/>
	<ellipse stroke="black" stroke-width="1" fill="none" cx="282.5" cy="392.5" rx="30" ry="30"/>
	<ellipse stroke="black" stroke-width="1" fill="none" cx="728.5" cy="119.5" rx="30" ry="30"/>
	<ellipse stroke="black" stroke-width="1" fill="none" cx="728.5" cy="119.5" rx="24" ry="24"/>
	<ellipse stroke="black" stroke-width="1" fill="none" cx="383.5" cy="353.5" rx="30" ry="30"/>
	<ellipse stroke="black" stroke-width="1" fill="none" cx="484.5" cy="392.5" rx="30" ry="30"/>
	<ellipse stroke="black" stroke-width="1" fill="none" cx="484.5" cy="392.5" rx="24" ry="24"/>
	<polygon stroke="black" stroke-width="1" points="25.5,162.5 57.5,162.5"/>
	<polygon fill="black" stroke-width="1" points="57.5,162.5 49.5,157.5 49.5,167.5"/>
	<polygon stroke="black" stroke-width="1" points="115.017,150.548 158.983,131.452"/>
	<polygon fill="black" stroke-width="1" points="158.983,131.452 149.654,130.053 153.638,139.225"/>
	<text x="119.5" y="131.5" font-family="Times New Roman" font-size="20">0</text>
	<polygon stroke="black" stroke-width="1" points="116.211,171.2 157.789,183.8"/>
	<polygon fill="black" stroke-width="1" points="157.789,183.8 151.583,176.695 148.683,186.265"/>
	<text x="121.5" y="199.5" font-family="Times New Roman" font-size="20">1</text>
	<polygon stroke="black" stroke-width="1" points="213.772,107 255.228,88"/>
	<polygon fill="black" stroke-width="1" points="255.228,88 245.872,86.788 250.039,95.878"/>
	<text x="216.5" y="88.5" font-family="Times New Roman" font-size="20">1</text>
	<polygon stroke="black" stroke-width="1" points="213.879,131.763 255.121,150.237"/>
	<polygon fill="black" stroke-width="1" points="255.121,150.237 249.864,142.403 245.776,151.529"/>
	<text x="239.5" y="131.5" font-family="Times New Roman" font-size="20">0</text>
	<polygon stroke="black" stroke-width="1" points="215.134,183.552 253.866,171.448"/>
	<polygon fill="black" stroke-width="1" points="253.866,171.448 244.738,169.062 247.721,178.607"/>
	<text x="237.5" y="199.5" font-family="Times New Roman" font-size="20">0</text>
	<polygon stroke="black" stroke-width="1" points="213.554,205.464 255.446,225.536"/>
	<polygon fill="black" stroke-width="1" points="255.446,225.536 250.392,217.57 246.07,226.589"/>
	<text x="216.5" y="236.5" font-family="Times New Roman" font-size="20">1</text>
	<polygon stroke="black" stroke-width="1" points="374.5,162.5 406.5,162.5"/>
	<polygon fill="black" stroke-width="1" points="406.5,162.5 398.5,157.5 398.5,167.5"/>
	<polygon stroke="black" stroke-width="1" points="463.926,150.342 506.074,131.658"/>
	<polygon fill="black" stroke-width="1" points="506.074,131.658 496.734,130.329 500.787,139.471"/>
	<text x="467.5" y="131.5" font-family="Times New Roman" font-size="20">0</text>
	<polygon stroke="black" stroke-width="1" points="561.046,107.617 607.954,87.383"/>
	<polygon fill="black" stroke-width="1" points="607.954,87.383 598.628,85.96 602.588,95.143"/>
	<text x="567.5" y="88.5" font-family="Times New Roman" font-size="20">1</text>
	<polygon stroke="black" stroke-width="1" points="561.144,131.154 607.856,150.846"/>
	<polygon fill="black" stroke-width="1" points="607.856,150.846 602.427,143.131 598.542,152.346"/>
	<text x="567.5" y="162.5" font-family="Times New Roman" font-size="20">0</text>
	<polygon stroke="black" stroke-width="1" points="205.5,392.5 252.5,392.5"/>
	<polygon fill="black" stroke-width="1" points="252.5,392.5 244.5,387.5 244.5,397.5"/>
	<polygon stroke="black" stroke-width="1" points="662.618,88.33 701.382,106.67"/>
	<polygon fill="black" stroke-width="1" points="701.382,106.67 696.289,98.729 692.012,107.768"/>
	<text x="686.5" y="88.5" font-family="Times New Roman" font-size="20">0</text>
	<polygon stroke="black" stroke-width="1" points="310.486,381.694 355.514,364.306"/>
	<polygon fill="black" stroke-width="1" points="355.514,364.306 346.25,362.524 349.852,371.853"/>
	<text x="315.5" y="363.5" font-family="Times New Roman" font-size="20">0</text>
	<polygon stroke="black" stroke-width="1" points="411.486,364.306 456.514,381.694"/>
	<polygon fill="black" stroke-width="1" points="456.514,381.694 450.852,374.147 447.25,383.476"/>
	<text x="416.5" y="394.5" font-family="Times New Roman" font-size="20">0</text>
</svg>
